<svg xmlns="http://www.w3.org/2000/svg" viewBox="0 0 1080 1080"><defs><style>.cls-1{fill:#1a1a1a;}.cls-2{fill:#333;}.cls-3{fill:none;stroke:#000;stroke-miterlimit:10;}.cls-4,.cls-5{fill:#fff;}.cls-5{font-size:165.93px;font-family:Poppins-ExtraBold, Poppins;font-weight:800;}</style></defs><g id="Layer_1" data-name="Layer 1"><path d="M971.22,795a85.29,85.29,0,0,1-24.55,21.79L580.92,1032.36a85.37,85.37,0,0,1-85.6.65L129.05,824.53A85.41,85.41,0,0,1,96.44,791.4L535.09,539.5Z"/><path class="cls-1" d="M988.7,742.94a85.4,85.4,0,0,1-17.48,52L535.09,539.5,980,284a85.3,85.3,0,0,1,7.34,34.37Z"/><path class="cls-2" d="M980,284,535.09,539.5,96.44,791.4a85.36,85.36,0,0,1-10.53-40.8L84.53,326a85.41,85.41,0,0,1,42-73.84L492.31,36.62a85.37,85.37,0,0,1,85.6-.65L944.18,244.45A85.45,85.45,0,0,1,980,284Z"/><line class="cls-3" x1="980" y1="284" x2="979.99" y2="284.01"/><line class="cls-3" x1="975.5" y1="797.5" x2="971.22" y2="794.99"/><path class="cls-4" d="M673.29,617.17,802,692.26C749.52,782.41,651.84,843,540,843c-110.67,0-207.49-59.34-260.36-147.94a303.29,303.29,0,0,1-1.15-308.19C331.11,297.2,428.52,237,540,237c112.65,0,211,61.48,263.16,152.72L674.42,464.81a154,154,0,1,0-1.13,152.36Z"/><text class="cls-5" transform="translate(696 593.79) scale(1.3 1)">--</text></g></svg>